<svg xmlns="http://www.w3.org/2000/svg" width="162" height="162" viewBox="0 0 162 162" fill="none">
<g opacity="0.3">
<g clip-path="url(#clip0_385_1334)">
<rect width="162" height="162" rx="81" fill="white"/>
<path fill-rule="evenodd" clip-rule="evenodd" d="M11.4394 12.4615C11.6322 12.3804 11.828 12.297 12.0271 12.2113C12.2227 12.1271 12.8901 11.8385 12.9815 11.799C18.1655 9.56271 21.4093 8.72308 27 8.72308C32.5464 8.72308 35.2954 9.48433 40.2995 11.7939C40.8156 12.0321 41.3089 12.2544 41.7845 12.4615H45.1462C43.7903 12.0063 42.3711 11.4079 40.7006 10.6369C35.5796 8.27336 32.7036 7.47692 27 7.47692C21.262 7.47692 17.8982 8.3476 12.6033 10.6318C12.5112 10.6715 11.8443 10.9599 11.6496 11.0437C10.3132 11.619 9.13285 12.0874 8.01869 12.4615H11.4394ZM11.4394 0C7.15906 1.80191 4.36143 2.49231 0 2.49231L0 1.24615C3.10172 1.24615 5.37376 0.888283 8.01869 0L11.4394 0ZM41.7845 0C46.0288 1.84832 48.8712 2.49231 54 2.49231V1.24615C50.3052 1.24615 47.8518 0.908327 45.1462 0L41.7845 0ZM0 8.72308C4.55787 8.72308 7.4079 7.96908 12.0271 5.9805C12.2227 5.89628 12.8901 5.60769 12.9815 5.56824C18.1655 3.33194 21.4093 2.49231 27 2.49231C32.5464 2.49231 35.2954 3.25356 40.2995 5.56313C45.4204 7.92664 48.2964 8.72308 54 8.72308V7.47692C48.4536 7.47692 45.7046 6.71567 40.7006 4.4061C35.5796 2.04259 32.7036 1.24615 27 1.24615C21.262 1.24615 17.8982 2.11683 12.6033 4.40099C12.5112 4.44075 11.8443 4.72913 11.6496 4.81296C7.1407 6.75405 4.4083 7.47692 0 7.47692L0 8.72308Z" fill="#BF310C"/>
<path fill-rule="evenodd" clip-rule="evenodd" d="M65.4394 12.4615C65.6322 12.3804 65.828 12.297 66.0271 12.2113C66.2227 12.1271 66.8901 11.8385 66.9815 11.799C72.1655 9.56271 75.4093 8.72308 81 8.72308C86.5464 8.72308 89.2954 9.48433 94.2995 11.7939C94.8156 12.0321 95.3089 12.2544 95.7845 12.4615H99.1462C97.7903 12.0063 96.3711 11.4079 94.7006 10.6369C89.5796 8.27336 86.7036 7.47692 81 7.47692C75.262 7.47692 71.8982 8.3476 66.6033 10.6318C66.5112 10.6715 65.8443 10.9599 65.6496 11.0437C64.3132 11.619 63.1328 12.0874 62.0187 12.4615H65.4394ZM65.4394 0C61.1591 1.80191 58.3614 2.49231 54 2.49231L54 1.24615C57.1017 1.24615 59.3738 0.888283 62.0187 0L65.4394 0ZM95.7845 0C100.029 1.84832 102.871 2.49231 108 2.49231V1.24615C104.305 1.24615 101.852 0.908327 99.1462 0L95.7845 0ZM54 8.72308C58.5579 8.72308 61.4079 7.96908 66.0271 5.9805C66.2227 5.89628 66.8901 5.60769 66.9815 5.56824C72.1655 3.33194 75.4093 2.49231 81 2.49231C86.5464 2.49231 89.2954 3.25356 94.2995 5.56313C99.4204 7.92664 102.296 8.72308 108 8.72308V7.47692C102.454 7.47692 99.7046 6.71567 94.7006 4.4061C89.5796 2.04259 86.7036 1.24615 81 1.24615C75.262 1.24615 71.8982 2.11683 66.6033 4.40099C66.5112 4.44075 65.8443 4.72913 65.6496 4.81296C61.1407 6.75405 58.4083 7.47692 54 7.47692L54 8.72308Z" fill="#BF310C"/>
<path fill-rule="evenodd" clip-rule="evenodd" d="M119.439 12.4615C119.632 12.3804 119.828 12.297 120.027 12.2113C120.223 12.1271 120.89 11.8385 120.982 11.799C126.165 9.56271 129.409 8.72308 135 8.72308C140.546 8.72308 143.295 9.48433 148.299 11.7939C148.816 12.0321 149.309 12.2544 149.785 12.4615H153.146C151.79 12.0063 150.371 11.4079 148.701 10.6369C143.58 8.27336 140.704 7.47692 135 7.47692C129.262 7.47692 125.898 8.3476 120.603 10.6318C120.511 10.6715 119.844 10.9599 119.65 11.0437C118.313 11.619 117.133 12.0874 116.019 12.4615H119.439ZM119.439 0C115.159 1.80191 112.361 2.49231 108 2.49231L108 1.24615C111.102 1.24615 113.374 0.888283 116.019 0L119.439 0ZM149.785 0C154.029 1.84832 156.871 2.49231 162 2.49231V1.24615C158.305 1.24615 155.852 0.908327 153.146 0L149.785 0ZM108 8.72308C112.558 8.72308 115.408 7.96908 120.027 5.9805C120.223 5.89628 120.89 5.60769 120.982 5.56824C126.165 3.33194 129.409 2.49231 135 2.49231C140.546 2.49231 143.295 3.25356 148.299 5.56313C153.42 7.92664 156.296 8.72308 162 8.72308V7.47692C156.454 7.47692 153.705 6.71567 148.701 4.4061C143.58 2.04259 140.704 1.24615 135 1.24615C129.262 1.24615 125.898 2.11683 120.603 4.40099C120.511 4.44075 119.844 4.72913 119.65 4.81296C115.141 6.75405 112.408 7.47692 108 7.47692L108 8.72308Z" fill="#BF310C"/>
<path fill-rule="evenodd" clip-rule="evenodd" d="M11.4394 24.9225C11.6322 24.8413 11.828 24.7579 12.0271 24.6722C12.2227 24.588 12.8901 24.2994 12.9815 24.2599C18.1655 22.0236 21.4093 21.184 27 21.184C32.5464 21.184 35.2954 21.9453 40.2995 24.2548C40.8156 24.493 41.3089 24.7153 41.7845 24.9225H45.1462C43.7903 24.4673 42.3711 23.8688 40.7006 23.0978C35.5796 20.7343 32.7036 19.9379 27 19.9379C21.262 19.9379 17.8982 20.8085 12.6033 23.0927C12.5112 23.1325 11.8443 23.4208 11.6496 23.5047C10.3132 24.08 9.13285 24.5483 8.01869 24.9225H11.4394ZM11.4394 12.4609C7.15906 14.2628 4.36143 14.9532 0 14.9532L0 13.7071C3.10172 13.7071 5.37376 13.3492 8.01869 12.4609L11.4394 12.4609ZM41.7845 12.4609C46.0288 14.3093 48.8712 14.9532 54 14.9532V13.7071C50.3052 13.7071 47.8518 13.3693 45.1462 12.4609L41.7845 12.4609ZM0 21.184C4.55787 21.184 7.4079 20.43 12.0271 18.4414C12.2227 18.3572 12.8901 18.0686 12.9815 18.0292C18.1655 15.7929 21.4093 14.9532 27 14.9532C32.5464 14.9532 35.2954 15.7145 40.2995 18.0241C45.4204 20.3876 48.2964 21.184 54 21.184V19.9379C48.4536 19.9379 45.7046 19.1766 40.7006 16.867C35.5796 14.5035 32.7036 13.7071 27 13.7071C21.262 13.7071 17.8982 14.5778 12.6033 16.8619C12.5112 16.9017 11.8443 17.1901 11.6496 17.2739C7.1407 19.215 4.4083 19.9379 0 19.9379L0 21.184Z" fill="#BF310C"/>
<path fill-rule="evenodd" clip-rule="evenodd" d="M65.4394 24.9225C65.6322 24.8413 65.828 24.7579 66.0271 24.6722C66.2227 24.588 66.8901 24.2994 66.9815 24.2599C72.1655 22.0236 75.4093 21.184 81 21.184C86.5464 21.184 89.2954 21.9453 94.2995 24.2548C94.8156 24.493 95.3089 24.7153 95.7845 24.9225H99.1462C97.7903 24.4673 96.3711 23.8688 94.7006 23.0978C89.5796 20.7343 86.7036 19.9379 81 19.9379C75.262 19.9379 71.8982 20.8085 66.6033 23.0927C66.5112 23.1325 65.8443 23.4208 65.6496 23.5047C64.3132 24.08 63.1328 24.5483 62.0187 24.9225H65.4394ZM65.4394 12.4609C61.1591 14.2628 58.3614 14.9532 54 14.9532L54 13.7071C57.1017 13.7071 59.3738 13.3492 62.0187 12.4609L65.4394 12.4609ZM95.7845 12.4609C100.029 14.3093 102.871 14.9532 108 14.9532V13.7071C104.305 13.7071 101.852 13.3693 99.1462 12.4609L95.7845 12.4609ZM54 21.184C58.5579 21.184 61.4079 20.43 66.0271 18.4414C66.2227 18.3572 66.8901 18.0686 66.9815 18.0292C72.1655 15.7929 75.4093 14.9532 81 14.9532C86.5464 14.9532 89.2954 15.7145 94.2995 18.0241C99.4204 20.3876 102.296 21.184 108 21.184V19.9379C102.454 19.9379 99.7046 19.1766 94.7006 16.867C89.5796 14.5035 86.7036 13.7071 81 13.7071C75.262 13.7071 71.8982 14.5778 66.6033 16.8619C66.5112 16.9017 65.8443 17.1901 65.6496 17.2739C61.1407 19.215 58.4083 19.9379 54 19.9379L54 21.184Z" fill="#BF310C"/>
<path fill-rule="evenodd" clip-rule="evenodd" d="M119.439 24.9225C119.632 24.8413 119.828 24.7579 120.027 24.6722C120.223 24.588 120.89 24.2994 120.982 24.2599C126.165 22.0236 129.409 21.184 135 21.184C140.546 21.184 143.295 21.9453 148.299 24.2548C148.816 24.493 149.309 24.7153 149.785 24.9225H153.146C151.79 24.4673 150.371 23.8688 148.701 23.0978C143.58 20.7343 140.704 19.9379 135 19.9379C129.262 19.9379 125.898 20.8085 120.603 23.0927C120.511 23.1325 119.844 23.4208 119.65 23.5047C118.313 24.08 117.133 24.5483 116.019 24.9225H119.439ZM119.439 12.4609C115.159 14.2628 112.361 14.9532 108 14.9532L108 13.7071C111.102 13.7071 113.374 13.3492 116.019 12.4609L119.439 12.4609ZM149.785 12.4609C154.029 14.3093 156.871 14.9532 162 14.9532V13.7071C158.305 13.7071 155.852 13.3693 153.146 12.4609L149.785 12.4609ZM108 21.184C112.558 21.184 115.408 20.43 120.027 18.4414C120.223 18.3572 120.89 18.0686 120.982 18.0292C126.165 15.7929 129.409 14.9532 135 14.9532C140.546 14.9532 143.295 15.7145 148.299 18.0241C153.42 20.3876 156.296 21.184 162 21.184V19.9379C156.454 19.9379 153.705 19.1766 148.701 16.867C143.58 14.5035 140.704 13.7071 135 13.7071C129.262 13.7071 125.898 14.5778 120.603 16.8619C120.511 16.9017 119.844 17.1901 119.65 17.2739C115.141 19.215 112.408 19.9379 108 19.9379L108 21.184Z" fill="#BF310C"/>
<path fill-rule="evenodd" clip-rule="evenodd" d="M11.4394 37.3854C11.6322 37.3042 11.828 37.2208 12.0271 37.1351C12.2227 37.0509 12.8901 36.7623 12.9815 36.7228C18.1655 34.4865 21.4093 33.6469 27 33.6469C32.5464 33.6469 35.2954 34.4082 40.2995 36.7177C40.8156 36.9559 41.3089 37.1782 41.7845 37.3854H45.1462C43.7903 36.9302 42.3711 36.3317 40.7006 35.5607C35.5796 33.1972 32.7036 32.4008 27 32.4008C21.262 32.4008 17.8982 33.2714 12.6033 35.5556C12.5112 35.5953 11.8443 35.8837 11.6496 35.9676C10.3132 36.5429 9.13285 37.0112 8.01869 37.3854H11.4394ZM11.4394 24.9238C7.15906 26.7257 4.36143 27.4161 0 27.4161L0 26.17C3.10172 26.17 5.37376 25.8121 8.01869 24.9238L11.4394 24.9238ZM41.7845 24.9238C46.0288 26.7721 48.8712 27.4161 54 27.4161V26.17C50.3052 26.17 47.8518 25.8322 45.1462 24.9238L41.7845 24.9238ZM0 33.6469C4.55787 33.6469 7.4079 32.8929 12.0271 30.9043C12.2227 30.8201 12.8901 30.5315 12.9815 30.4921C18.1655 28.2558 21.4093 27.4161 27 27.4161C32.5464 27.4161 35.2954 28.1774 40.2995 30.487C45.4204 32.8505 48.2964 33.6469 54 33.6469V32.4008C48.4536 32.4008 45.7046 31.6395 40.7006 29.3299C35.5796 26.9664 32.7036 26.17 27 26.17C21.262 26.17 17.8982 27.0407 12.6033 29.3248C12.5112 29.3646 11.8443 29.653 11.6496 29.7368C7.1407 31.6779 4.4083 32.4008 0 32.4008L0 33.6469Z" fill="#BF310C"/>
<path fill-rule="evenodd" clip-rule="evenodd" d="M65.4394 37.3854C65.6322 37.3042 65.828 37.2208 66.0271 37.1351C66.2227 37.0509 66.8901 36.7623 66.9815 36.7228C72.1655 34.4865 75.4093 33.6469 81 33.6469C86.5464 33.6469 89.2954 34.4082 94.2995 36.7177C94.8156 36.9559 95.3089 37.1782 95.7845 37.3854H99.1462C97.7903 36.9302 96.3711 36.3317 94.7006 35.5607C89.5796 33.1972 86.7036 32.4008 81 32.4008C75.262 32.4008 71.8982 33.2714 66.6033 35.5556C66.5112 35.5953 65.8443 35.8837 65.6496 35.9676C64.3132 36.5429 63.1328 37.0112 62.0187 37.3854H65.4394ZM65.4394 24.9238C61.1591 26.7257 58.3614 27.4161 54 27.4161L54 26.17C57.1017 26.17 59.3738 25.8121 62.0187 24.9238L65.4394 24.9238ZM95.7845 24.9238C100.029 26.7721 102.871 27.4161 108 27.4161V26.17C104.305 26.17 101.852 25.8322 99.1462 24.9238L95.7845 24.9238ZM54 33.6469C58.5579 33.6469 61.4079 32.8929 66.0271 30.9043C66.2227 30.8201 66.8901 30.5315 66.9815 30.4921C72.1655 28.2558 75.4093 27.4161 81 27.4161C86.5464 27.4161 89.2954 28.1774 94.2995 30.487C99.4204 32.8505 102.296 33.6469 108 33.6469V32.4008C102.454 32.4008 99.7046 31.6395 94.7006 29.3299C89.5796 26.9664 86.7036 26.17 81 26.17C75.262 26.17 71.8982 27.0407 66.6033 29.3248C66.5112 29.3646 65.8443 29.653 65.6496 29.7368C61.1407 31.6779 58.4083 32.4008 54 32.4008L54 33.6469Z" fill="#BF310C"/>
<path fill-rule="evenodd" clip-rule="evenodd" d="M119.439 37.3854C119.632 37.3042 119.828 37.2208 120.027 37.1351C120.223 37.0509 120.89 36.7623 120.982 36.7228C126.165 34.4865 129.409 33.6469 135 33.6469C140.546 33.6469 143.295 34.4082 148.299 36.7177C148.816 36.9559 149.309 37.1782 149.785 37.3854H153.146C151.79 36.9302 150.371 36.3317 148.701 35.5607C143.58 33.1972 140.704 32.4008 135 32.4008C129.262 32.4008 125.898 33.2714 120.603 35.5556C120.511 35.5953 119.844 35.8837 119.65 35.9676C118.313 36.5429 117.133 37.0112 116.019 37.3854H119.439ZM119.439 24.9238C115.159 26.7257 112.361 27.4161 108 27.4161L108 26.17C111.102 26.17 113.374 25.8121 116.019 24.9238L119.439 24.9238ZM149.785 24.9238C154.029 26.7721 156.871 27.4161 162 27.4161V26.17C158.305 26.17 155.852 25.8322 153.146 24.9238L149.785 24.9238ZM108 33.6469C112.558 33.6469 115.408 32.8929 120.027 30.9043C120.223 30.8201 120.89 30.5315 120.982 30.4921C126.165 28.2558 129.409 27.4161 135 27.4161C140.546 27.4161 143.295 28.1774 148.299 30.487C153.42 32.8505 156.296 33.6469 162 33.6469V32.4008C156.454 32.4008 153.705 31.6395 148.701 29.3299C143.58 26.9664 140.704 26.17 135 26.17C129.262 26.17 125.898 27.0407 120.603 29.3248C120.511 29.3646 119.844 29.653 119.65 29.7368C115.141 31.6779 112.408 32.4008 108 32.4008L108 33.6469Z" fill="#BF310C"/>
<path fill-rule="evenodd" clip-rule="evenodd" d="M11.4394 49.8463C11.6322 49.7651 11.828 49.6817 12.0271 49.596C12.2227 49.5118 12.8901 49.2232 12.9815 49.1838C18.1655 46.9475 21.4093 46.1078 27 46.1078C32.5464 46.1078 35.2954 46.8691 40.2995 49.1787C40.8156 49.4169 41.3089 49.6391 41.7845 49.8463H45.1462C43.7903 49.3911 42.3711 48.7927 40.7006 48.0216C35.5796 45.6581 32.7036 44.8617 27 44.8617C21.262 44.8617 17.8982 45.7324 12.6033 48.0165C12.5112 48.0563 11.8443 48.3447 11.6496 48.4285C10.3132 49.0038 9.13285 49.4721 8.01869 49.8463H11.4394ZM11.4394 37.3848C7.15906 39.1867 4.36143 39.8771 0 39.8771L0 38.6309C3.10172 38.6309 5.37376 38.273 8.01869 37.3848H11.4394ZM41.7845 37.3848C46.0288 39.2331 48.8712 39.8771 54 39.8771V38.6309C50.3052 38.6309 47.8518 38.2931 45.1462 37.3848L41.7845 37.3848ZM0 46.1078C4.55787 46.1078 7.4079 45.3538 12.0271 43.3653C12.2227 43.281 12.8901 42.9925 12.9815 42.953C18.1655 40.7167 21.4093 39.8771 27 39.8771C32.5464 39.8771 35.2954 40.6383 40.2995 42.9479C45.4204 45.3114 48.2964 46.1078 54 46.1078V44.8617C48.4536 44.8617 45.7046 44.1004 40.7006 41.7909C35.5796 39.4274 32.7036 38.6309 27 38.6309C21.262 38.6309 17.8982 39.5016 12.6033 41.7858C12.5112 41.8255 11.8443 42.1139 11.6496 42.1977C7.1407 44.1388 4.4083 44.8617 0 44.8617L0 46.1078Z" fill="#BF310C"/>
<path fill-rule="evenodd" clip-rule="evenodd" d="M65.4394 49.8463C65.6322 49.7651 65.828 49.6817 66.0271 49.596C66.2227 49.5118 66.8901 49.2232 66.9815 49.1838C72.1655 46.9475 75.4093 46.1078 81 46.1078C86.5464 46.1078 89.2954 46.8691 94.2995 49.1787C94.8156 49.4169 95.3089 49.6391 95.7845 49.8463H99.1462C97.7903 49.3911 96.3711 48.7927 94.7006 48.0216C89.5796 45.6581 86.7036 44.8617 81 44.8617C75.262 44.8617 71.8982 45.7324 66.6033 48.0165C66.5112 48.0563 65.8443 48.3447 65.6496 48.4285C64.3132 49.0038 63.1328 49.4721 62.0187 49.8463H65.4394ZM65.4394 37.3848C61.1591 39.1867 58.3614 39.8771 54 39.8771L54 38.6309C57.1017 38.6309 59.3738 38.273 62.0187 37.3848H65.4394ZM95.7845 37.3848C100.029 39.2331 102.871 39.8771 108 39.8771V38.6309C104.305 38.6309 101.852 38.2931 99.1462 37.3848L95.7845 37.3848ZM54 46.1078C58.5579 46.1078 61.4079 45.3538 66.0271 43.3653C66.2227 43.281 66.8901 42.9925 66.9815 42.953C72.1655 40.7167 75.4093 39.8771 81 39.8771C86.5464 39.8771 89.2954 40.6383 94.2995 42.9479C99.4204 45.3114 102.296 46.1078 108 46.1078V44.8617C102.454 44.8617 99.7046 44.1004 94.7006 41.7909C89.5796 39.4274 86.7036 38.6309 81 38.6309C75.262 38.6309 71.8982 39.5016 66.6033 41.7858C66.5112 41.8255 65.8443 42.1139 65.6496 42.1977C61.1407 44.1388 58.4083 44.8617 54 44.8617L54 46.1078Z" fill="#BF310C"/>
<path fill-rule="evenodd" clip-rule="evenodd" d="M119.439 49.8463C119.632 49.7651 119.828 49.6817 120.027 49.596C120.223 49.5118 120.89 49.2232 120.982 49.1838C126.165 46.9475 129.409 46.1078 135 46.1078C140.546 46.1078 143.295 46.8691 148.299 49.1787C148.816 49.4169 149.309 49.6391 149.785 49.8463H153.146C151.79 49.3911 150.371 48.7927 148.701 48.0216C143.58 45.6581 140.704 44.8617 135 44.8617C129.262 44.8617 125.898 45.7324 120.603 48.0165C120.511 48.0563 119.844 48.3447 119.65 48.4285C118.313 49.0038 117.133 49.4721 116.019 49.8463H119.439ZM119.439 37.3848C115.159 39.1867 112.361 39.8771 108 39.8771L108 38.6309C111.102 38.6309 113.374 38.273 116.019 37.3848H119.439ZM149.785 37.3848C154.029 39.2331 156.871 39.8771 162 39.8771V38.6309C158.305 38.6309 155.852 38.2931 153.146 37.3848L149.785 37.3848ZM108 46.1078C112.558 46.1078 115.408 45.3538 120.027 43.3653C120.223 43.281 120.89 42.9925 120.982 42.953C126.165 40.7167 129.409 39.8771 135 39.8771C140.546 39.8771 143.295 40.6383 148.299 42.9479C153.42 45.3114 156.296 46.1078 162 46.1078V44.8617C156.454 44.8617 153.705 44.1004 148.701 41.7909C143.58 39.4274 140.704 38.6309 135 38.6309C129.262 38.6309 125.898 39.5016 120.603 41.7858C120.511 41.8255 119.844 42.1139 119.65 42.1977C115.141 44.1388 112.408 44.8617 108 44.8617L108 46.1078Z" fill="#BF310C"/>
<path fill-rule="evenodd" clip-rule="evenodd" d="M11.4394 62.3072C11.6322 62.2261 11.828 62.1427 12.0271 62.057C12.2227 61.9728 12.8901 61.6842 12.9815 61.6447C18.1655 59.4084 21.4093 58.5688 27 58.5688C32.5464 58.5688 35.2954 59.33 40.2995 61.6396C40.8156 61.8778 41.3089 62.1001 41.7845 62.3072H45.1462C43.7903 61.8521 42.3711 61.2536 40.7006 60.4826C35.5796 58.1191 32.7036 57.3226 27 57.3226C21.262 57.3226 17.8982 58.1933 12.6033 60.4775C12.5112 60.5172 11.8443 60.8056 11.6496 60.8894C10.3132 61.4648 9.13285 61.9331 8.01869 62.3072H11.4394ZM11.4394 49.8457C7.15906 51.6476 4.36143 52.338 0 52.338L0 51.0919C3.10172 51.0919 5.37376 50.734 8.01869 49.8457H11.4394ZM41.7845 49.8457C46.0288 51.694 48.8712 52.338 54 52.338V51.0919C50.3052 51.0919 47.8518 50.754 45.1462 49.8457L41.7845 49.8457ZM0 58.5688C4.55787 58.5688 7.4079 57.8148 12.0271 55.8262C12.2227 55.742 12.8901 55.4534 12.9815 55.4139C18.1655 53.1776 21.4093 52.338 27 52.338C32.5464 52.338 35.2954 53.0993 40.2995 55.4088C45.4204 57.7723 48.2964 58.5688 54 58.5688V57.3226C48.4536 57.3226 45.7046 56.5614 40.7006 54.2518C35.5796 51.8883 32.7036 51.0919 27 51.0919C21.262 51.0919 17.8982 51.9625 12.6033 54.2467C12.5112 54.2864 11.8443 54.5748 11.6496 54.6587C7.1407 56.5998 4.4083 57.3226 0 57.3226L0 58.5688Z" fill="#BF310C"/>
<path fill-rule="evenodd" clip-rule="evenodd" d="M65.4394 62.3072C65.6322 62.2261 65.828 62.1427 66.0271 62.057C66.2227 61.9728 66.8901 61.6842 66.9815 61.6447C72.1655 59.4084 75.4093 58.5688 81 58.5688C86.5464 58.5688 89.2954 59.33 94.2995 61.6396C94.8156 61.8778 95.3089 62.1001 95.7845 62.3072H99.1462C97.7903 61.8521 96.3711 61.2536 94.7006 60.4826C89.5796 58.1191 86.7036 57.3226 81 57.3226C75.262 57.3226 71.8982 58.1933 66.6033 60.4775C66.5112 60.5172 65.8443 60.8056 65.6496 60.8894C64.3132 61.4648 63.1328 61.9331 62.0187 62.3072H65.4394ZM65.4394 49.8457C61.1591 51.6476 58.3614 52.338 54 52.338L54 51.0919C57.1017 51.0919 59.3738 50.734 62.0187 49.8457H65.4394ZM95.7845 49.8457C100.029 51.694 102.871 52.338 108 52.338V51.0919C104.305 51.0919 101.852 50.754 99.1462 49.8457L95.7845 49.8457ZM54 58.5688C58.5579 58.5688 61.4079 57.8148 66.0271 55.8262C66.2227 55.742 66.8901 55.4534 66.9815 55.4139C72.1655 53.1776 75.4093 52.338 81 52.338C86.5464 52.338 89.2954 53.0993 94.2995 55.4088C99.4204 57.7723 102.296 58.5688 108 58.5688V57.3226C102.454 57.3226 99.7046 56.5614 94.7006 54.2518C89.5796 51.8883 86.7036 51.0919 81 51.0919C75.262 51.0919 71.8982 51.9625 66.6033 54.2467C66.5112 54.2864 65.8443 54.5748 65.6496 54.6587C61.1407 56.5998 58.4083 57.3226 54 57.3226L54 58.5688Z" fill="#BF310C"/>
<path fill-rule="evenodd" clip-rule="evenodd" d="M119.439 62.3072C119.632 62.2261 119.828 62.1427 120.027 62.057C120.223 61.9728 120.89 61.6842 120.982 61.6447C126.165 59.4084 129.409 58.5688 135 58.5688C140.546 58.5688 143.295 59.33 148.299 61.6396C148.816 61.8778 149.309 62.1001 149.785 62.3072H153.146C151.79 61.8521 150.371 61.2536 148.701 60.4826C143.58 58.1191 140.704 57.3226 135 57.3226C129.262 57.3226 125.898 58.1933 120.603 60.4775C120.511 60.5172 119.844 60.8056 119.65 60.8894C118.313 61.4648 117.133 61.9331 116.019 62.3072H119.439ZM119.439 49.8457C115.159 51.6476 112.361 52.338 108 52.338L108 51.0919C111.102 51.0919 113.374 50.734 116.019 49.8457H119.439ZM149.785 49.8457C154.029 51.694 156.871 52.338 162 52.338V51.0919C158.305 51.0919 155.852 50.754 153.146 49.8457L149.785 49.8457ZM108 58.5688C112.558 58.5688 115.408 57.8148 120.027 55.8262C120.223 55.742 120.89 55.4534 120.982 55.4139C126.165 53.1776 129.409 52.338 135 52.338C140.546 52.338 143.295 53.0993 148.299 55.4088C153.42 57.7723 156.296 58.5688 162 58.5688V57.3226C156.454 57.3226 153.705 56.5614 148.701 54.2518C143.58 51.8883 140.704 51.0919 135 51.0919C129.262 51.0919 125.898 51.9625 120.603 54.2467C120.511 54.2864 119.844 54.5748 119.65 54.6587C115.141 56.5998 112.408 57.3226 108 57.3226L108 58.5688Z" fill="#BF310C"/>
<path fill-rule="evenodd" clip-rule="evenodd" d="M11.4394 74.7701C11.6322 74.689 11.828 74.6056 12.0271 74.5199C12.2227 74.4356 12.8901 74.1471 12.9815 74.1076C18.1655 71.8713 21.4093 71.0317 27 71.0317C32.5464 71.0317 35.2954 71.7929 40.2995 74.1025C40.8156 74.3407 41.3089 74.563 41.7845 74.7701H45.1462C43.7903 74.3149 42.3711 73.7165 40.7006 72.9455C35.5796 70.582 32.7036 69.7855 27 69.7855C21.262 69.7855 17.8982 70.6562 12.6033 72.9404C12.5112 72.9801 11.8443 73.2685 11.6496 73.3523C10.3132 73.9276 9.13285 74.3959 8.01869 74.7701H11.4394ZM11.4394 62.3086C7.15906 64.1105 4.36143 64.8009 0 64.8009L0 63.5547C3.10172 63.5547 5.37376 63.1969 8.01869 62.3086H11.4394ZM41.7845 62.3086C46.0288 64.1569 48.8712 64.8009 54 64.8009V63.5547C50.3052 63.5547 47.8518 63.2169 45.1462 62.3086L41.7845 62.3086ZM0 71.0317C4.55787 71.0317 7.4079 70.2777 12.0271 68.2891C12.2227 68.2049 12.8901 67.9163 12.9815 67.8768C18.1655 65.6405 21.4093 64.8009 27 64.8009C32.5464 64.8009 35.2954 65.5622 40.2995 67.8717C45.4204 70.2352 48.2964 71.0317 54 71.0317V69.7855C48.4536 69.7855 45.7046 69.0243 40.7006 66.7147C35.5796 64.3512 32.7036 63.5547 27 63.5547C21.262 63.5547 17.8982 64.4254 12.6033 66.7096C12.5112 66.7493 11.8443 67.0377 11.6496 67.1216C7.1407 69.0626 4.4083 69.7855 0 69.7855L0 71.0317Z" fill="#BF310C"/>
<path fill-rule="evenodd" clip-rule="evenodd" d="M65.4394 74.7701C65.6322 74.689 65.828 74.6056 66.0271 74.5199C66.2227 74.4356 66.8901 74.1471 66.9815 74.1076C72.1655 71.8713 75.4093 71.0317 81 71.0317C86.5464 71.0317 89.2954 71.7929 94.2995 74.1025C94.8156 74.3407 95.3089 74.563 95.7845 74.7701H99.1462C97.7903 74.3149 96.3711 73.7165 94.7006 72.9455C89.5796 70.582 86.7036 69.7855 81 69.7855C75.262 69.7855 71.8982 70.6562 66.6033 72.9404C66.5112 72.9801 65.8443 73.2685 65.6496 73.3523C64.3132 73.9276 63.1328 74.3959 62.0187 74.7701H65.4394ZM65.4394 62.3086C61.1591 64.1105 58.3614 64.8009 54 64.8009L54 63.5547C57.1017 63.5547 59.3738 63.1969 62.0187 62.3086H65.4394ZM95.7845 62.3086C100.029 64.1569 102.871 64.8009 108 64.8009V63.5547C104.305 63.5547 101.852 63.2169 99.1462 62.3086L95.7845 62.3086ZM54 71.0317C58.5579 71.0317 61.4079 70.2777 66.0271 68.2891C66.2227 68.2049 66.8901 67.9163 66.9815 67.8768C72.1655 65.6405 75.4093 64.8009 81 64.8009C86.5464 64.8009 89.2954 65.5622 94.2995 67.8717C99.4204 70.2352 102.296 71.0317 108 71.0317V69.7855C102.454 69.7855 99.7046 69.0243 94.7006 66.7147C89.5796 64.3512 86.7036 63.5547 81 63.5547C75.262 63.5547 71.8982 64.4254 66.6033 66.7096C66.5112 66.7493 65.8443 67.0377 65.6496 67.1216C61.1407 69.0626 58.4083 69.7855 54 69.7855L54 71.0317Z" fill="#BF310C"/>
<path fill-rule="evenodd" clip-rule="evenodd" d="M119.439 74.7701C119.632 74.689 119.828 74.6056 120.027 74.5199C120.223 74.4356 120.89 74.1471 120.982 74.1076C126.165 71.8713 129.409 71.0317 135 71.0317C140.546 71.0317 143.295 71.7929 148.299 74.1025C148.816 74.3407 149.309 74.563 149.785 74.7701H153.146C151.79 74.3149 150.371 73.7165 148.701 72.9455C143.58 70.582 140.704 69.7855 135 69.7855C129.262 69.7855 125.898 70.6562 120.603 72.9404C120.511 72.9801 119.844 73.2685 119.65 73.3523C118.313 73.9276 117.133 74.3959 116.019 74.7701H119.439ZM119.439 62.3086C115.159 64.1105 112.361 64.8009 108 64.8009L108 63.5547C111.102 63.5547 113.374 63.1969 116.019 62.3086H119.439ZM149.785 62.3086C154.029 64.1569 156.871 64.8009 162 64.8009V63.5547C158.305 63.5547 155.852 63.2169 153.146 62.3086L149.785 62.3086ZM108 71.0317C112.558 71.0317 115.408 70.2777 120.027 68.2891C120.223 68.2049 120.89 67.9163 120.982 67.8768C126.165 65.6405 129.409 64.8009 135 64.8009C140.546 64.8009 143.295 65.5622 148.299 67.8717C153.42 70.2352 156.296 71.0317 162 71.0317V69.7855C156.454 69.7855 153.705 69.0243 148.701 66.7147C143.58 64.3512 140.704 63.5547 135 63.5547C129.262 63.5547 125.898 64.4254 120.603 66.7096C120.511 66.7493 119.844 67.0377 119.65 67.1216C115.141 69.0626 112.408 69.7855 108 69.7855L108 71.0317Z" fill="#BF310C"/>
<path fill-rule="evenodd" clip-rule="evenodd" d="M11.4394 87.2311C11.6322 87.1499 11.828 87.0665 12.0271 86.9808C12.2227 86.8966 12.8901 86.608 12.9815 86.5685C18.1655 84.3322 21.4093 83.4926 27 83.4926C32.5464 83.4926 35.2954 84.2539 40.2995 86.5634C40.8156 86.8016 41.3089 87.0239 41.7845 87.2311H45.1462C43.7903 86.7759 42.3711 86.1774 40.7006 85.4064C35.5796 83.0429 32.7036 82.2465 27 82.2465C21.262 82.2465 17.8982 83.1171 12.6033 85.4013C12.5112 85.441 11.8443 85.7294 11.6496 85.8133C10.3132 86.3886 9.13285 86.8569 8.01869 87.2311H11.4394ZM11.4394 74.7695C7.15906 76.5714 4.36143 77.2618 0 77.2618L0 76.0157C3.10172 76.0157 5.37376 75.6578 8.01869 74.7695H11.4394ZM41.7845 74.7695C46.0288 76.6178 48.8712 77.2618 54 77.2618V76.0157C50.3052 76.0157 47.8518 75.6779 45.1462 74.7695L41.7845 74.7695ZM0 83.4926C4.55787 83.4926 7.4079 82.7386 12.0271 80.75C12.2227 80.6658 12.8901 80.3772 12.9815 80.3378C18.1655 78.1015 21.4093 77.2618 27 77.2618C32.5464 77.2618 35.2954 78.0231 40.2995 80.3327C45.4204 82.6962 48.2964 83.4926 54 83.4926V82.2465C48.4536 82.2465 45.7046 81.4852 40.7006 79.1756C35.5796 76.8121 32.7036 76.0157 27 76.0157C21.262 76.0157 17.8982 76.8864 12.6033 79.1705C12.5112 79.2103 11.8443 79.4987 11.6496 79.5825C7.1407 81.5236 4.4083 82.2465 0 82.2465L0 83.4926Z" fill="#BF310C"/>
<path fill-rule="evenodd" clip-rule="evenodd" d="M65.4394 87.2311C65.6322 87.1499 65.828 87.0665 66.0271 86.9808C66.2227 86.8966 66.8901 86.608 66.9815 86.5685C72.1655 84.3322 75.4093 83.4926 81 83.4926C86.5464 83.4926 89.2954 84.2539 94.2995 86.5634C94.8156 86.8016 95.3089 87.0239 95.7845 87.2311H99.1462C97.7903 86.7759 96.3711 86.1774 94.7006 85.4064C89.5796 83.0429 86.7036 82.2465 81 82.2465C75.262 82.2465 71.8982 83.1171 66.6033 85.4013C66.5112 85.441 65.8443 85.7294 65.6496 85.8133C64.3132 86.3886 63.1328 86.8569 62.0187 87.2311H65.4394ZM65.4394 74.7695C61.1591 76.5714 58.3614 77.2618 54 77.2618L54 76.0157C57.1017 76.0157 59.3738 75.6578 62.0187 74.7695H65.4394ZM95.7845 74.7695C100.029 76.6178 102.871 77.2618 108 77.2618V76.0157C104.305 76.0157 101.852 75.6779 99.1462 74.7695L95.7845 74.7695ZM54 83.4926C58.5579 83.4926 61.4079 82.7386 66.0271 80.75C66.2227 80.6658 66.8901 80.3772 66.9815 80.3378C72.1655 78.1015 75.4093 77.2618 81 77.2618C86.5464 77.2618 89.2954 78.0231 94.2995 80.3327C99.4204 82.6962 102.296 83.4926 108 83.4926V82.2465C102.454 82.2465 99.7046 81.4852 94.7006 79.1756C89.5796 76.8121 86.7036 76.0157 81 76.0157C75.262 76.0157 71.8982 76.8864 66.6033 79.1705C66.5112 79.2103 65.8443 79.4987 65.6496 79.5825C61.1407 81.5236 58.4083 82.2465 54 82.2465L54 83.4926Z" fill="#BF310C"/>
<path fill-rule="evenodd" clip-rule="evenodd" d="M119.439 87.2311C119.632 87.1499 119.828 87.0665 120.027 86.9808C120.223 86.8966 120.89 86.608 120.982 86.5685C126.165 84.3322 129.409 83.4926 135 83.4926C140.546 83.4926 143.295 84.2539 148.299 86.5634C148.816 86.8016 149.309 87.0239 149.785 87.2311H153.146C151.79 86.7759 150.371 86.1774 148.701 85.4064C143.58 83.0429 140.704 82.2465 135 82.2465C129.262 82.2465 125.898 83.1171 120.603 85.4013C120.511 85.441 119.844 85.7294 119.65 85.8133C118.313 86.3886 117.133 86.8569 116.019 87.2311H119.439ZM119.439 74.7695C115.159 76.5714 112.361 77.2618 108 77.2618L108 76.0157C111.102 76.0157 113.374 75.6578 116.019 74.7695H119.439ZM149.785 74.7695C154.029 76.6178 156.871 77.2618 162 77.2618V76.0157C158.305 76.0157 155.852 75.6779 153.146 74.7695L149.785 74.7695ZM108 83.4926C112.558 83.4926 115.408 82.7386 120.027 80.75C120.223 80.6658 120.89 80.3772 120.982 80.3378C126.165 78.1015 129.409 77.2618 135 77.2618C140.546 77.2618 143.295 78.0231 148.299 80.3327C153.42 82.6962 156.296 83.4926 162 83.4926V82.2465C156.454 82.2465 153.705 81.4852 148.701 79.1756C143.58 76.8121 140.704 76.0157 135 76.0157C129.262 76.0157 125.898 76.8864 120.603 79.1705C120.511 79.2103 119.844 79.4987 119.65 79.5825C115.141 81.5236 112.408 82.2465 108 82.2465L108 83.4926Z" fill="#BF310C"/>
<path fill-rule="evenodd" clip-rule="evenodd" d="M11.4394 99.692C11.6322 99.6109 11.828 99.5274 12.0271 99.4417C12.2227 99.3575 12.8901 99.0689 12.9815 99.0295C18.1655 96.7932 21.4093 95.9535 27 95.9535C32.5464 95.9535 35.2954 96.7148 40.2995 99.0244C40.8156 99.2626 41.3089 99.4849 41.7845 99.692H45.1462C43.7903 99.2368 42.3711 98.6384 40.7006 97.8673C35.5796 95.5038 32.7036 94.7074 27 94.7074C21.262 94.7074 17.8982 95.5781 12.6033 97.8622C12.5112 97.902 11.8443 98.1904 11.6496 98.2742C10.3132 98.8495 9.13285 99.3178 8.01869 99.692H11.4394ZM11.4394 87.2305C7.15906 89.0324 4.36143 89.7228 0 89.7228L0 88.4766C3.10172 88.4766 5.37376 88.1188 8.01869 87.2305H11.4394ZM41.7845 87.2305C46.0288 89.0788 48.8712 89.7228 54 89.7228V88.4766C50.3052 88.4766 47.8518 88.1388 45.1462 87.2305L41.7845 87.2305ZM0 95.9535C4.55787 95.9535 7.4079 95.1996 12.0271 93.211C12.2227 93.1268 12.8901 92.8382 12.9815 92.7987C18.1655 90.5624 21.4093 89.7228 27 89.7228C32.5464 89.7228 35.2954 90.484 40.2995 92.7936C45.4204 95.1571 48.2964 95.9535 54 95.9535V94.7074C48.4536 94.7074 45.7046 93.9461 40.7006 91.6366C35.5796 89.2731 32.7036 88.4766 27 88.4766C21.262 88.4766 17.8982 89.3473 12.6033 91.6315C12.5112 91.6712 11.8443 91.9596 11.6496 92.0434C7.1407 93.9845 4.4083 94.7074 0 94.7074L0 95.9535Z" fill="#BF310C"/>
<path fill-rule="evenodd" clip-rule="evenodd" d="M65.4394 99.692C65.6322 99.6109 65.828 99.5274 66.0271 99.4417C66.2227 99.3575 66.8901 99.0689 66.9815 99.0295C72.1655 96.7932 75.4093 95.9535 81 95.9535C86.5464 95.9535 89.2954 96.7148 94.2995 99.0244C94.8156 99.2626 95.3089 99.4849 95.7845 99.692H99.1462C97.7903 99.2368 96.3711 98.6384 94.7006 97.8673C89.5796 95.5038 86.7036 94.7074 81 94.7074C75.262 94.7074 71.8982 95.5781 66.6033 97.8622C66.5112 97.902 65.8443 98.1904 65.6496 98.2742C64.3132 98.8495 63.1328 99.3178 62.0187 99.692H65.4394ZM65.4394 87.2305C61.1591 89.0324 58.3614 89.7228 54 89.7228L54 88.4766C57.1017 88.4766 59.3738 88.1188 62.0187 87.2305H65.4394ZM95.7845 87.2305C100.029 89.0788 102.871 89.7228 108 89.7228V88.4766C104.305 88.4766 101.852 88.1388 99.1462 87.2305L95.7845 87.2305ZM54 95.9535C58.5579 95.9535 61.4079 95.1996 66.0271 93.211C66.2227 93.1268 66.8901 92.8382 66.9815 92.7987C72.1655 90.5624 75.4093 89.7228 81 89.7228C86.5464 89.7228 89.2954 90.484 94.2995 92.7936C99.4204 95.1571 102.296 95.9535 108 95.9535V94.7074C102.454 94.7074 99.7046 93.9461 94.7006 91.6366C89.5796 89.2731 86.7036 88.4766 81 88.4766C75.262 88.4766 71.8982 89.3473 66.6033 91.6315C66.5112 91.6712 65.8443 91.9596 65.6496 92.0434C61.1407 93.9845 58.4083 94.7074 54 94.7074L54 95.9535Z" fill="#BF310C"/>
<path fill-rule="evenodd" clip-rule="evenodd" d="M119.439 99.692C119.632 99.6109 119.828 99.5274 120.027 99.4417C120.223 99.3575 120.89 99.0689 120.982 99.0295C126.165 96.7932 129.409 95.9535 135 95.9535C140.546 95.9535 143.295 96.7148 148.299 99.0244C148.816 99.2626 149.309 99.4849 149.785 99.692H153.146C151.79 99.2368 150.371 98.6384 148.701 97.8673C143.58 95.5038 140.704 94.7074 135 94.7074C129.262 94.7074 125.898 95.5781 120.603 97.8622C120.511 97.902 119.844 98.1904 119.65 98.2742C118.313 98.8495 117.133 99.3178 116.019 99.692H119.439ZM119.439 87.2305C115.159 89.0324 112.361 89.7228 108 89.7228L108 88.4766C111.102 88.4766 113.374 88.1188 116.019 87.2305H119.439ZM149.785 87.2305C154.029 89.0788 156.871 89.7228 162 89.7228V88.4766C158.305 88.4766 155.852 88.1388 153.146 87.2305L149.785 87.2305ZM108 95.9535C112.558 95.9535 115.408 95.1996 120.027 93.211C120.223 93.1268 120.89 92.8382 120.982 92.7987C126.165 90.5624 129.409 89.7228 135 89.7228C140.546 89.7228 143.295 90.484 148.299 92.7936C153.42 95.1571 156.296 95.9535 162 95.9535V94.7074C156.454 94.7074 153.705 93.9461 148.701 91.6366C143.58 89.2731 140.704 88.4766 135 88.4766C129.262 88.4766 125.898 89.3473 120.603 91.6315C120.511 91.6712 119.844 91.9596 119.65 92.0434C115.141 93.9845 112.408 94.7074 108 94.7074L108 95.9535Z" fill="#BF310C"/>
<path fill-rule="evenodd" clip-rule="evenodd" d="M11.4394 112.153C11.6322 112.072 11.828 111.988 12.0271 111.903C12.2227 111.818 12.8901 111.53 12.9815 111.49C18.1655 109.254 21.4093 108.414 27 108.414C32.5464 108.414 35.2954 109.176 40.2995 111.485C40.8156 111.724 41.3089 111.946 41.7845 112.153H45.1462C43.7903 111.698 42.3711 111.099 40.7006 110.328C35.5796 107.965 32.7036 107.168 27 107.168C21.262 107.168 17.8982 108.039 12.6033 110.323C12.5112 110.363 11.8443 110.651 11.6496 110.735C10.3132 111.31 9.13285 111.779 8.01869 112.153H11.4394ZM11.4394 99.6914C7.15906 101.493 4.36143 102.184 0 102.184L0 100.938C3.10172 100.938 5.37376 100.58 8.01869 99.6914H11.4394ZM41.7845 99.6914C46.0288 101.54 48.8712 102.184 54 102.184V100.938C50.3052 100.938 47.8518 100.6 45.1462 99.6914L41.7845 99.6914ZM0 108.414C4.55787 108.414 7.4079 107.66 12.0271 105.672C12.2227 105.588 12.8901 105.299 12.9815 105.26C18.1655 103.023 21.4093 102.184 27 102.184C32.5464 102.184 35.2954 102.945 40.2995 105.255C45.4204 107.618 48.2964 108.414 54 108.414V107.168C48.4536 107.168 45.7046 106.407 40.7006 104.098C35.5796 101.734 32.7036 100.938 27 100.938C21.262 100.938 17.8982 101.808 12.6033 104.092C12.5112 104.132 11.8443 104.421 11.6496 104.504C7.1407 106.445 4.4083 107.168 0 107.168L0 108.414Z" fill="#BF310C"/>
<path fill-rule="evenodd" clip-rule="evenodd" d="M65.4394 112.153C65.6322 112.072 65.828 111.988 66.0271 111.903C66.2227 111.818 66.8901 111.53 66.9815 111.49C72.1655 109.254 75.4093 108.414 81 108.414C86.5464 108.414 89.2954 109.176 94.2995 111.485C94.8156 111.724 95.3089 111.946 95.7845 112.153H99.1462C97.7903 111.698 96.3711 111.099 94.7006 110.328C89.5796 107.965 86.7036 107.168 81 107.168C75.262 107.168 71.8982 108.039 66.6033 110.323C66.5112 110.363 65.8443 110.651 65.6496 110.735C64.3132 111.31 63.1328 111.779 62.0187 112.153H65.4394ZM65.4394 99.6914C61.1591 101.493 58.3614 102.184 54 102.184L54 100.938C57.1017 100.938 59.3738 100.58 62.0187 99.6914H65.4394ZM95.7845 99.6914C100.029 101.54 102.871 102.184 108 102.184V100.938C104.305 100.938 101.852 100.6 99.1462 99.6914L95.7845 99.6914ZM54 108.414C58.5579 108.414 61.4079 107.66 66.0271 105.672C66.2227 105.588 66.8901 105.299 66.9815 105.26C72.1655 103.023 75.4093 102.184 81 102.184C86.5464 102.184 89.2954 102.945 94.2995 105.255C99.4204 107.618 102.296 108.414 108 108.414V107.168C102.454 107.168 99.7046 106.407 94.7006 104.098C89.5796 101.734 86.7036 100.938 81 100.938C75.262 100.938 71.8982 101.808 66.6033 104.092C66.5112 104.132 65.8443 104.421 65.6496 104.504C61.1407 106.445 58.4083 107.168 54 107.168L54 108.414Z" fill="#BF310C"/>
<path fill-rule="evenodd" clip-rule="evenodd" d="M119.439 112.153C119.632 112.072 119.828 111.988 120.027 111.903C120.223 111.818 120.89 111.53 120.982 111.49C126.165 109.254 129.409 108.414 135 108.414C140.546 108.414 143.295 109.176 148.299 111.485C148.816 111.724 149.309 111.946 149.785 112.153H153.146C151.79 111.698 150.371 111.099 148.701 110.328C143.58 107.965 140.704 107.168 135 107.168C129.262 107.168 125.898 108.039 120.603 110.323C120.511 110.363 119.844 110.651 119.65 110.735C118.313 111.31 117.133 111.779 116.019 112.153H119.439ZM119.439 99.6914C115.159 101.493 112.361 102.184 108 102.184L108 100.938C111.102 100.938 113.374 100.58 116.019 99.6914H119.439ZM149.785 99.6914C154.029 101.54 156.871 102.184 162 102.184V100.938C158.305 100.938 155.852 100.6 153.146 99.6914L149.785 99.6914ZM108 108.414C112.558 108.414 115.408 107.66 120.027 105.672C120.223 105.588 120.89 105.299 120.982 105.26C126.165 103.023 129.409 102.184 135 102.184C140.546 102.184 143.295 102.945 148.299 105.255C153.42 107.618 156.296 108.414 162 108.414V107.168C156.454 107.168 153.705 106.407 148.701 104.098C143.58 101.734 140.704 100.938 135 100.938C129.262 100.938 125.898 101.808 120.603 104.092C120.511 104.132 119.844 104.421 119.65 104.504C115.141 106.445 112.408 107.168 108 107.168L108 108.414Z" fill="#BF310C"/>
<path fill-rule="evenodd" clip-rule="evenodd" d="M11.4394 124.616C11.6322 124.535 11.828 124.451 12.0271 124.366C12.2227 124.281 12.8901 123.993 12.9815 123.953C18.1655 121.717 21.4093 120.877 27 120.877C32.5464 120.877 35.2954 121.639 40.2995 123.948C40.8156 124.186 41.3089 124.409 41.7845 124.616H45.1462C43.7903 124.161 42.3711 123.562 40.7006 122.791C35.5796 120.428 32.7036 119.631 27 119.631C21.262 119.631 17.8982 120.502 12.6033 122.786C12.5112 122.826 11.8443 123.114 11.6496 123.198C10.3132 123.773 9.13285 124.242 8.01869 124.616H11.4394ZM11.4394 112.154C7.15906 113.956 4.36143 114.647 0 114.647L0 113.4C3.10172 113.4 5.37376 113.043 8.01869 112.154H11.4394ZM41.7845 112.154C46.0288 114.003 48.8712 114.647 54 114.647V113.4C50.3052 113.4 47.8518 113.063 45.1462 112.154L41.7845 112.154ZM0 120.877C4.55787 120.877 7.4079 120.123 12.0271 118.135C12.2227 118.051 12.8901 117.762 12.9815 117.723C18.1655 115.486 21.4093 114.647 27 114.647C32.5464 114.647 35.2954 115.408 40.2995 117.717C45.4204 120.081 48.2964 120.877 54 120.877V119.631C48.4536 119.631 45.7046 118.87 40.7006 116.56C35.5796 114.197 32.7036 113.4 27 113.4C21.262 113.4 17.8982 114.271 12.6033 116.555C12.5112 116.595 11.8443 116.883 11.6496 116.967C7.1407 118.908 4.4083 119.631 0 119.631L0 120.877Z" fill="#BF310C"/>
<path fill-rule="evenodd" clip-rule="evenodd" d="M65.4394 124.616C65.6322 124.535 65.828 124.451 66.0271 124.366C66.2227 124.281 66.8901 123.993 66.9815 123.953C72.1655 121.717 75.4093 120.877 81 120.877C86.5464 120.877 89.2954 121.639 94.2995 123.948C94.8156 124.186 95.3089 124.409 95.7845 124.616H99.1462C97.7903 124.161 96.3711 123.562 94.7006 122.791C89.5796 120.428 86.7036 119.631 81 119.631C75.262 119.631 71.8982 120.502 66.6033 122.786C66.5112 122.826 65.8443 123.114 65.6496 123.198C64.3132 123.773 63.1328 124.242 62.0187 124.616H65.4394ZM65.4394 112.154C61.1591 113.956 58.3614 114.647 54 114.647L54 113.4C57.1017 113.4 59.3738 113.043 62.0187 112.154H65.4394ZM95.7845 112.154C100.029 114.003 102.871 114.647 108 114.647V113.4C104.305 113.4 101.852 113.063 99.1462 112.154L95.7845 112.154ZM54 120.877C58.5579 120.877 61.4079 120.123 66.0271 118.135C66.2227 118.051 66.8901 117.762 66.9815 117.723C72.1655 115.486 75.4093 114.647 81 114.647C86.5464 114.647 89.2954 115.408 94.2995 117.717C99.4204 120.081 102.296 120.877 108 120.877V119.631C102.454 119.631 99.7046 118.87 94.7006 116.56C89.5796 114.197 86.7036 113.4 81 113.4C75.262 113.4 71.8982 114.271 66.6033 116.555C66.5112 116.595 65.8443 116.883 65.6496 116.967C61.1407 118.908 58.4083 119.631 54 119.631L54 120.877Z" fill="#BF310C"/>
<path fill-rule="evenodd" clip-rule="evenodd" d="M119.439 124.616C119.632 124.535 119.828 124.451 120.027 124.366C120.223 124.281 120.89 123.993 120.982 123.953C126.165 121.717 129.409 120.877 135 120.877C140.546 120.877 143.295 121.639 148.299 123.948C148.816 124.186 149.309 124.409 149.785 124.616H153.146C151.79 124.161 150.371 123.562 148.701 122.791C143.58 120.428 140.704 119.631 135 119.631C129.262 119.631 125.898 120.502 120.603 122.786C120.511 122.826 119.844 123.114 119.65 123.198C118.313 123.773 117.133 124.242 116.019 124.616H119.439ZM119.439 112.154C115.159 113.956 112.361 114.647 108 114.647L108 113.4C111.102 113.4 113.374 113.043 116.019 112.154H119.439ZM149.785 112.154C154.029 114.003 156.871 114.647 162 114.647V113.4C158.305 113.4 155.852 113.063 153.146 112.154L149.785 112.154ZM108 120.877C112.558 120.877 115.408 120.123 120.027 118.135C120.223 118.051 120.89 117.762 120.982 117.723C126.165 115.486 129.409 114.647 135 114.647C140.546 114.647 143.295 115.408 148.299 117.717C153.42 120.081 156.296 120.877 162 120.877V119.631C156.454 119.631 153.705 118.87 148.701 116.56C143.58 114.197 140.704 113.4 135 113.4C129.262 113.4 125.898 114.271 120.603 116.555C120.511 116.595 119.844 116.883 119.65 116.967C115.141 118.908 112.408 119.631 108 119.631L108 120.877Z" fill="#BF310C"/>
<path fill-rule="evenodd" clip-rule="evenodd" d="M11.4394 137.077C11.6322 136.996 11.828 136.912 12.0271 136.826C12.2227 136.742 12.8901 136.454 12.9815 136.414C18.1655 134.178 21.4093 133.338 27 133.338C32.5464 133.338 35.2954 134.1 40.2995 136.409C40.8156 136.647 41.3089 136.87 41.7845 137.077H45.1462C43.7903 136.622 42.3711 136.023 40.7006 135.252C35.5796 132.889 32.7036 132.092 27 132.092C21.262 132.092 17.8982 132.963 12.6033 135.247C12.5112 135.287 11.8443 135.575 11.6496 135.659C10.3132 136.234 9.13285 136.703 8.01869 137.077H11.4394ZM11.4394 124.615C7.15906 126.417 4.36143 127.108 0 127.108L0 125.861C3.10172 125.861 5.37376 125.504 8.01869 124.615H11.4394ZM41.7845 124.615C46.0288 126.464 48.8712 127.108 54 127.108V125.861C50.3052 125.861 47.8518 125.524 45.1462 124.615L41.7845 124.615ZM0 133.338C4.55787 133.338 7.4079 132.584 12.0271 130.596C12.2227 130.512 12.8901 130.223 12.9815 130.183C18.1655 127.947 21.4093 127.108 27 127.108C32.5464 127.108 35.2954 127.869 40.2995 130.178C45.4204 132.542 48.2964 133.338 54 133.338V132.092C48.4536 132.092 45.7046 131.331 40.7006 129.021C35.5796 126.658 32.7036 125.861 27 125.861C21.262 125.861 17.8982 126.732 12.6033 129.016C12.5112 129.056 11.8443 129.344 11.6496 129.428C7.1407 131.369 4.4083 132.092 0 132.092L0 133.338Z" fill="#BF310C"/>
<path fill-rule="evenodd" clip-rule="evenodd" d="M65.4394 137.077C65.6322 136.996 65.828 136.912 66.0271 136.826C66.2227 136.742 66.8901 136.454 66.9815 136.414C72.1655 134.178 75.4093 133.338 81 133.338C86.5464 133.338 89.2954 134.1 94.2995 136.409C94.8156 136.647 95.3089 136.87 95.7845 137.077H99.1462C97.7903 136.622 96.3711 136.023 94.7006 135.252C89.5796 132.889 86.7036 132.092 81 132.092C75.262 132.092 71.8982 132.963 66.6033 135.247C66.5112 135.287 65.8443 135.575 65.6496 135.659C64.3132 136.234 63.1328 136.703 62.0187 137.077H65.4394ZM65.4394 124.615C61.1591 126.417 58.3614 127.108 54 127.108L54 125.861C57.1017 125.861 59.3738 125.504 62.0187 124.615H65.4394ZM95.7845 124.615C100.029 126.464 102.871 127.108 108 127.108V125.861C104.305 125.861 101.852 125.524 99.1462 124.615L95.7845 124.615ZM54 133.338C58.5579 133.338 61.4079 132.584 66.0271 130.596C66.2227 130.512 66.8901 130.223 66.9815 130.183C72.1655 127.947 75.4093 127.108 81 127.108C86.5464 127.108 89.2954 127.869 94.2995 130.178C99.4204 132.542 102.296 133.338 108 133.338V132.092C102.454 132.092 99.7046 131.331 94.7006 129.021C89.5796 126.658 86.7036 125.861 81 125.861C75.262 125.861 71.8982 126.732 66.6033 129.016C66.5112 129.056 65.8443 129.344 65.6496 129.428C61.1407 131.369 58.4083 132.092 54 132.092L54 133.338Z" fill="#BF310C"/>
<path fill-rule="evenodd" clip-rule="evenodd" d="M119.439 137.077C119.632 136.996 119.828 136.912 120.027 136.826C120.223 136.742 120.89 136.454 120.982 136.414C126.165 134.178 129.409 133.338 135 133.338C140.546 133.338 143.295 134.1 148.299 136.409C148.816 136.647 149.309 136.87 149.785 137.077H153.146C151.79 136.622 150.371 136.023 148.701 135.252C143.58 132.889 140.704 132.092 135 132.092C129.262 132.092 125.898 132.963 120.603 135.247C120.511 135.287 119.844 135.575 119.65 135.659C118.313 136.234 117.133 136.703 116.019 137.077H119.439ZM119.439 124.615C115.159 126.417 112.361 127.108 108 127.108L108 125.861C111.102 125.861 113.374 125.504 116.019 124.615H119.439ZM149.785 124.615C154.029 126.464 156.871 127.108 162 127.108V125.861C158.305 125.861 155.852 125.524 153.146 124.615L149.785 124.615ZM108 133.338C112.558 133.338 115.408 132.584 120.027 130.596C120.223 130.512 120.89 130.223 120.982 130.183C126.165 127.947 129.409 127.108 135 127.108C140.546 127.108 143.295 127.869 148.299 130.178C153.42 132.542 156.296 133.338 162 133.338V132.092C156.454 132.092 153.705 131.331 148.701 129.021C143.58 126.658 140.704 125.861 135 125.861C129.262 125.861 125.898 126.732 120.603 129.016C120.511 129.056 119.844 129.344 119.65 129.428C115.141 131.369 112.408 132.092 108 132.092L108 133.338Z" fill="#BF310C"/>
<path fill-rule="evenodd" clip-rule="evenodd" d="M11.4394 149.538C11.6322 149.457 11.828 149.373 12.0271 149.287C12.2227 149.203 12.8901 148.915 12.9815 148.875C18.1655 146.639 21.4093 145.799 27 145.799C32.5464 145.799 35.2954 146.561 40.2995 148.87C40.8156 149.108 41.3089 149.331 41.7845 149.538H45.1462C43.7903 149.083 42.3711 148.484 40.7006 147.713C35.5796 145.35 32.7036 144.553 27 144.553C21.262 144.553 17.8982 145.424 12.6033 147.708C12.5112 147.748 11.8443 148.036 11.6496 148.12C10.3132 148.695 9.13285 149.164 8.01869 149.538H11.4394ZM11.4394 137.076C7.15906 138.878 4.36143 139.568 0 139.568L0 138.322C3.10172 138.322 5.37376 137.964 8.01869 137.076H11.4394ZM41.7845 137.076C46.0288 138.924 48.8712 139.568 54 139.568V138.322C50.3052 138.322 47.8518 137.984 45.1462 137.076L41.7845 137.076ZM0 145.799C4.55787 145.799 7.4079 145.045 12.0271 143.057C12.2227 142.972 12.8901 142.684 12.9815 142.644C18.1655 140.408 21.4093 139.568 27 139.568C32.5464 139.568 35.2954 140.33 40.2995 142.639C45.4204 145.003 48.2964 145.799 54 145.799V144.553C48.4536 144.553 45.7046 143.792 40.7006 141.482C35.5796 139.119 32.7036 138.322 27 138.322C21.262 138.322 17.8982 139.193 12.6033 141.477C12.5112 141.517 11.8443 141.805 11.6496 141.889C7.1407 143.83 4.4083 144.553 0 144.553L0 145.799Z" fill="#BF310C"/>
<path fill-rule="evenodd" clip-rule="evenodd" d="M65.4394 149.538C65.6322 149.457 65.828 149.373 66.0271 149.287C66.2227 149.203 66.8901 148.915 66.9815 148.875C72.1655 146.639 75.4093 145.799 81 145.799C86.5464 145.799 89.2954 146.561 94.2995 148.87C94.8156 149.108 95.3089 149.331 95.7845 149.538H99.1462C97.7903 149.083 96.3711 148.484 94.7006 147.713C89.5796 145.35 86.7036 144.553 81 144.553C75.262 144.553 71.8982 145.424 66.6033 147.708C66.5112 147.748 65.8443 148.036 65.6496 148.12C64.3132 148.695 63.1328 149.164 62.0187 149.538H65.4394ZM65.4394 137.076C61.1591 138.878 58.3614 139.568 54 139.568L54 138.322C57.1017 138.322 59.3738 137.964 62.0187 137.076H65.4394ZM95.7845 137.076C100.029 138.924 102.871 139.568 108 139.568V138.322C104.305 138.322 101.852 137.984 99.1462 137.076L95.7845 137.076ZM54 145.799C58.5579 145.799 61.4079 145.045 66.0271 143.057C66.2227 142.972 66.8901 142.684 66.9815 142.644C72.1655 140.408 75.4093 139.568 81 139.568C86.5464 139.568 89.2954 140.33 94.2995 142.639C99.4204 145.003 102.296 145.799 108 145.799V144.553C102.454 144.553 99.7046 143.792 94.7006 141.482C89.5796 139.119 86.7036 138.322 81 138.322C75.262 138.322 71.8982 139.193 66.6033 141.477C66.5112 141.517 65.8443 141.805 65.6496 141.889C61.1407 143.83 58.4083 144.553 54 144.553L54 145.799Z" fill="#BF310C"/>
<path fill-rule="evenodd" clip-rule="evenodd" d="M119.439 149.538C119.632 149.457 119.828 149.373 120.027 149.287C120.223 149.203 120.89 148.915 120.982 148.875C126.165 146.639 129.409 145.799 135 145.799C140.546 145.799 143.295 146.561 148.299 148.87C148.816 149.108 149.309 149.331 149.785 149.538H153.146C151.79 149.083 150.371 148.484 148.701 147.713C143.58 145.35 140.704 144.553 135 144.553C129.262 144.553 125.898 145.424 120.603 147.708C120.511 147.748 119.844 148.036 119.65 148.12C118.313 148.695 117.133 149.164 116.019 149.538H119.439ZM119.439 137.076C115.159 138.878 112.361 139.568 108 139.568L108 138.322C111.102 138.322 113.374 137.964 116.019 137.076H119.439ZM149.785 137.076C154.029 138.924 156.871 139.568 162 139.568V138.322C158.305 138.322 155.852 137.984 153.146 137.076L149.785 137.076ZM108 145.799C112.558 145.799 115.408 145.045 120.027 143.057C120.223 142.972 120.89 142.684 120.982 142.644C126.165 140.408 129.409 139.568 135 139.568C140.546 139.568 143.295 140.33 148.299 142.639C153.42 145.003 156.296 145.799 162 145.799V144.553C156.454 144.553 153.705 143.792 148.701 141.482C143.58 139.119 140.704 138.322 135 138.322C129.262 138.322 125.898 139.193 120.603 141.477C120.511 141.517 119.844 141.805 119.65 141.889C115.141 143.83 112.408 144.553 108 144.553L108 145.799Z" fill="#BF310C"/>
<path fill-rule="evenodd" clip-rule="evenodd" d="M11.4394 162.001C11.6322 161.919 11.828 161.836 12.0271 161.75C12.2227 161.666 12.8901 161.378 12.9815 161.338C18.1655 159.102 21.4093 158.262 27 158.262C32.5464 158.262 35.2954 159.023 40.2995 161.333C40.8156 161.571 41.3089 161.793 41.7845 162.001H45.1462C43.7903 161.545 42.3711 160.947 40.7006 160.176C35.5796 157.812 32.7036 157.016 27 157.016C21.262 157.016 17.8982 157.887 12.6033 160.171C12.5112 160.211 11.8443 160.499 11.6496 160.583C10.3132 161.158 9.13285 161.626 8.01869 162.001H11.4394ZM11.4394 149.539C7.15906 151.341 4.36143 152.031 0 152.031L0 150.785C3.10172 150.785 5.37376 150.427 8.01869 149.539H11.4394ZM41.7845 149.539C46.0288 151.387 48.8712 152.031 54 152.031V150.785C50.3052 150.785 47.8518 150.447 45.1462 149.539L41.7845 149.539ZM0 158.262C4.55787 158.262 7.4079 157.508 12.0271 155.52C12.2227 155.435 12.8901 155.147 12.9815 155.107C18.1655 152.871 21.4093 152.031 27 152.031C32.5464 152.031 35.2954 152.793 40.2995 155.102C45.4204 157.466 48.2964 158.262 54 158.262V157.016C48.4536 157.016 45.7046 156.255 40.7006 153.945C35.5796 151.582 32.7036 150.785 27 150.785C21.262 150.785 17.8982 151.656 12.6033 153.94C12.5112 153.98 11.8443 154.268 11.6496 154.352C7.1407 156.293 4.4083 157.016 0 157.016L0 158.262Z" fill="#BF310C"/>
<path fill-rule="evenodd" clip-rule="evenodd" d="M65.4394 162.001C65.6322 161.919 65.828 161.836 66.0271 161.75C66.2227 161.666 66.8901 161.378 66.9815 161.338C72.1655 159.102 75.4093 158.262 81 158.262C86.5464 158.262 89.2954 159.023 94.2995 161.333C94.8156 161.571 95.3089 161.793 95.7845 162.001H99.1462C97.7903 161.545 96.3711 160.947 94.7006 160.176C89.5796 157.812 86.7036 157.016 81 157.016C75.262 157.016 71.8982 157.887 66.6033 160.171C66.5112 160.211 65.8443 160.499 65.6496 160.583C64.3132 161.158 63.1328 161.626 62.0187 162.001H65.4394ZM65.4394 149.539C61.1591 151.341 58.3614 152.031 54 152.031L54 150.785C57.1017 150.785 59.3738 150.427 62.0187 149.539H65.4394ZM95.7845 149.539C100.029 151.387 102.871 152.031 108 152.031V150.785C104.305 150.785 101.852 150.447 99.1462 149.539L95.7845 149.539ZM54 158.262C58.5579 158.262 61.4079 157.508 66.0271 155.52C66.2227 155.435 66.8901 155.147 66.9815 155.107C72.1655 152.871 75.4093 152.031 81 152.031C86.5464 152.031 89.2954 152.793 94.2995 155.102C99.4204 157.466 102.296 158.262 108 158.262V157.016C102.454 157.016 99.7046 156.255 94.7006 153.945C89.5796 151.582 86.7036 150.785 81 150.785C75.262 150.785 71.8982 151.656 66.6033 153.94C66.5112 153.98 65.8443 154.268 65.6496 154.352C61.1407 156.293 58.4083 157.016 54 157.016L54 158.262Z" fill="#BF310C"/>
<path fill-rule="evenodd" clip-rule="evenodd" d="M119.439 162.001C119.632 161.919 119.828 161.836 120.027 161.75C120.223 161.666 120.89 161.378 120.982 161.338C126.165 159.102 129.409 158.262 135 158.262C140.546 158.262 143.295 159.023 148.299 161.333C148.816 161.571 149.309 161.793 149.785 162.001H153.146C151.79 161.545 150.371 160.947 148.701 160.176C143.58 157.812 140.704 157.016 135 157.016C129.262 157.016 125.898 157.887 120.603 160.171C120.511 160.211 119.844 160.499 119.65 160.583C118.313 161.158 117.133 161.626 116.019 162.001H119.439ZM119.439 149.539C115.159 151.341 112.361 152.031 108 152.031L108 150.785C111.102 150.785 113.374 150.427 116.019 149.539H119.439ZM149.785 149.539C154.029 151.387 156.871 152.031 162 152.031V150.785C158.305 150.785 155.852 150.447 153.146 149.539L149.785 149.539ZM108 158.262C112.558 158.262 115.408 157.508 120.027 155.52C120.223 155.435 120.89 155.147 120.982 155.107C126.165 152.871 129.409 152.031 135 152.031C140.546 152.031 143.295 152.793 148.299 155.102C153.42 157.466 156.296 158.262 162 158.262V157.016C156.454 157.016 153.705 156.255 148.701 153.945C143.58 151.582 140.704 150.785 135 150.785C129.262 150.785 125.898 151.656 120.603 153.94C120.511 153.98 119.844 154.268 119.65 154.352C115.141 156.293 112.408 157.016 108 157.016L108 158.262Z" fill="#BF310C"/>
</g>
</g>
<defs>
<clipPath id="clip0_385_1334">
<rect width="162" height="162" rx="81" fill="white"/>
</clipPath>
</defs>
</svg>